<svg xmlns="http://www.w3.org/2000/svg" xmlns:xlink="http://www.w3.org/1999/xlink" width="240" zoomAndPan="magnify" viewBox="0 0 180 89.999999" height="120" preserveAspectRatio="xMidYMid meet" version="1.0"><defs><clipPath id="64a6938421"><path d="M 41.539062 65 L 113.621094 65 L 113.621094 89.949219 L 41.539062 89.949219 Z M 41.539062 65 " clip-rule="nonzero"/></clipPath><clipPath id="b1b08623f3"><path d="M 128 49 L 159.296875 49 L 159.296875 90 L 128 90 Z M 128 49 " clip-rule="nonzero"/></clipPath><clipPath id="d2b181b8ca"><path d="M 148 82 L 159.296875 82 L 159.296875 88 L 148 88 Z M 148 82 " clip-rule="nonzero"/></clipPath><clipPath id="47876e17bf"><path d="M 20.703125 28.4375 L 81.535156 28.4375 L 81.535156 49.480469 L 20.703125 49.480469 Z M 20.703125 28.4375 " clip-rule="nonzero"/></clipPath></defs><g clip-path="url(#64a6938421)"><path fill="#3dd8c5" d="M 85.816406 85.453125 C 85.730469 85.453125 85.648438 85.40625 85.605469 85.324219 C 85.546875 85.207031 85.597656 85.0625 85.714844 85.003906 C 89.027344 83.363281 92.667969 82.417969 96.1875 81.503906 C 97.546875 81.152344 98.949219 80.785156 100.3125 80.386719 C 104.207031 79.25 109.777344 77.230469 113.1875 72.890625 C 113.269531 72.785156 113.417969 72.769531 113.523438 72.847656 C 113.625 72.929688 113.644531 73.078125 113.5625 73.183594 C 110.066406 77.632812 104.402344 79.6875 100.445312 80.84375 C 99.074219 81.246094 97.667969 81.609375 96.304688 81.964844 C 92.808594 82.871094 89.195312 83.8125 85.925781 85.433594 C 85.890625 85.445312 85.855469 85.453125 85.816406 85.453125 Z M 58.996094 88.285156 C 62.265625 85.710938 66.433594 83.714844 71.375 82.355469 C 75.847656 81.125 80.390625 80.527344 85.035156 79.976562 L 85.449219 79.925781 C 89.507812 79.445312 93.703125 78.949219 97.527344 77.359375 C 99.328125 76.613281 102.394531 74.914062 102.707031 71.921875 C 102.878906 70.265625 102.082031 68.480469 100.621094 67.261719 C 99.433594 66.269531 97.832031 65.613281 95.855469 65.308594 C 93.535156 64.949219 91.371094 65.167969 89.59375 65.9375 C 88.378906 66.464844 87.4375 67.222656 86.863281 68.128906 C 86.167969 69.222656 86.035156 70.558594 86.511719 71.609375 C 86.980469 72.636719 88.027344 73.410156 89.320312 73.679688 C 90.296875 73.882812 91.398438 73.816406 92.785156 73.476562 C 93.84375 73.214844 95.335938 72.726562 96.113281 71.488281 C 96.183594 71.375 96.148438 71.230469 96.039062 71.160156 C 95.929688 71.089844 95.78125 71.125 95.710938 71.234375 C 95.1875 72.066406 94.222656 72.632812 92.671875 73.015625 C 91.359375 73.339844 90.324219 73.402344 89.414062 73.210938 C 88.273438 72.972656 87.351562 72.300781 86.945312 71.410156 C 86.53125 70.503906 86.652344 69.34375 87.261719 68.382812 C 87.785156 67.554688 88.65625 66.859375 89.777344 66.371094 C 91.476562 65.636719 93.550781 65.429688 95.78125 65.773438 C 97.671875 66.066406 99.195312 66.6875 100.3125 67.621094 C 101.652344 68.738281 102.390625 70.367188 102.230469 71.867188 C 101.945312 74.617188 99.046875 76.210938 97.34375 76.917969 C 93.578125 78.480469 89.417969 78.976562 85.394531 79.453125 L 84.976562 79.503906 C 80.3125 80.058594 75.753906 80.660156 71.25 81.898438 C 66.246094 83.273438 62.023438 85.296875 58.703125 87.910156 C 58.597656 87.992188 58.582031 88.140625 58.660156 88.246094 C 58.710938 88.304688 58.777344 88.335938 58.847656 88.335938 C 58.898438 88.335938 58.953125 88.320312 58.996094 88.285156 Z M 41.976562 89.957031 C 52.71875 82.011719 65.996094 77.554688 79.355469 77.40625 C 79.488281 77.40625 79.589844 77.296875 79.589844 77.167969 C 79.589844 77.035156 79.484375 76.933594 79.351562 76.933594 C 65.886719 77.082031 52.515625 81.570312 41.691406 89.574219 C 41.585938 89.652344 41.5625 89.800781 41.644531 89.90625 C 41.6875 89.96875 41.761719 90.003906 41.835938 90.003906 C 41.882812 90.003906 41.933594 89.988281 41.976562 89.957031 Z M 62.957031 75.917969 C 67.832031 74.722656 72.847656 74.078125 77.867188 74.007812 C 78 74.007812 78.101562 73.898438 78.101562 73.765625 C 78.097656 73.636719 77.992188 73.53125 77.863281 73.53125 C 77.863281 73.53125 77.863281 73.53125 77.859375 73.53125 C 72.804688 73.605469 67.753906 74.25 62.84375 75.457031 C 62.71875 75.492188 62.640625 75.617188 62.671875 75.746094 C 62.699219 75.851562 62.796875 75.925781 62.902344 75.925781 C 62.921875 75.925781 62.9375 75.925781 62.957031 75.917969 Z M 62.957031 75.917969 " fill-opacity="1" fill-rule="nonzero"/></g><path fill="#3dd8c5" d="M 119.414062 55.855469 C 123.1875 55.855469 127.046875 55.207031 130.792969 53.894531 C 131.796875 53.539062 132.789062 53.121094 133.738281 52.65625 C 136.691406 51.410156 140.28125 48.234375 140.4375 48.097656 C 145.382812 43.609375 148.585938 37.707031 149.46875 31.480469 C 150.433594 24.667969 148.425781 17.375 143.960938 11.464844 C 139.507812 5.578125 133.054688 1.636719 126.246094 0.640625 C 121.855469 0 117.199219 0.296875 112.40625 1.523438 C 107.15625 2.867188 99.902344 5.761719 95.167969 11.9375 C 91.019531 17.34375 89.394531 24.769531 90.824219 31.792969 C 92.304688 39.097656 96.460938 46.121094 101.660156 50.128906 C 106.554688 53.898438 112.84375 55.851562 119.414062 55.855469 Z M 121.644531 1.558594 C 123.148438 1.558594 124.621094 1.664062 126.066406 1.875 C 139.808594 3.878906 150.171875 17.632812 148.234375 31.308594 C 147.390625 37.25 144.328125 42.886719 139.601562 47.171875 C 139.570312 47.199219 136 50.359375 133.234375 51.519531 L 133.199219 51.535156 C 132.292969 51.980469 131.339844 52.378906 130.375 52.71875 C 120.5 56.195312 109.789062 54.824219 102.417969 49.144531 C 97.441406 45.3125 93.46875 38.570312 92.042969 31.550781 C 90.683594 24.871094 92.222656 17.824219 96.152344 12.695312 C 100.675781 6.796875 107.65625 4.019531 112.71875 2.730469 C 115.769531 1.949219 118.753906 1.558594 121.644531 1.558594 Z M 121.644531 1.558594 " fill-opacity="1" fill-rule="nonzero"/><path fill="#3dd8c5" d="M 119.53125 50.597656 C 122.585938 50.597656 125.714844 50.074219 128.746094 49.007812 C 136.660156 46.222656 142.742188 38.921875 143.886719 30.835938 C 144.667969 25.3125 143.042969 19.398438 139.417969 14.609375 C 135.8125 9.832031 130.578125 6.636719 125.058594 5.832031 C 121.503906 5.3125 117.730469 5.554688 113.851562 6.542969 C 109.597656 7.628906 103.722656 9.976562 99.882812 14.984375 C 96.519531 19.375 95.199219 25.398438 96.355469 31.09375 C 97.554688 37.011719 100.921875 42.703125 105.140625 45.953125 C 109.105469 49.011719 114.207031 50.597656 119.53125 50.597656 Z M 121.335938 6.808594 C 122.539062 6.808594 123.722656 6.894531 124.882812 7.0625 C 135.902344 8.671875 144.207031 19.699219 142.65625 30.664062 C 141.574219 38.304688 135.820312 45.203125 128.332031 47.835938 C 120.410156 50.625 111.8125 49.527344 105.902344 44.972656 C 101.910156 41.898438 98.71875 36.488281 97.574219 30.851562 C 96.488281 25.5 97.71875 19.851562 100.867188 15.746094 C 104.492188 11.019531 110.097656 8.789062 114.160156 7.75 C 116.609375 7.125 119.011719 6.808594 121.335938 6.808594 Z M 121.335938 6.808594 " fill-opacity="1" fill-rule="nonzero"/><g clip-path="url(#b1b08623f3)"><path fill="#3dd8c5" d="M 150.6875 90 C 151.964844 90 153.449219 89.5625 155.167969 88.679688 C 156.773438 87.851562 158.492188 86.757812 159.046875 84.910156 C 159.203125 84.375 159.253906 83.804688 159.199219 83.214844 C 159.132812 82.511719 158.910156 81.761719 158.515625 80.917969 C 158.207031 80.257812 157.832031 79.632812 157.542969 79.160156 C 151.167969 68.785156 144.027344 58.976562 137.257812 49.820312 C 137.054688 49.542969 136.664062 49.488281 136.390625 49.691406 C 136.113281 49.894531 136.054688 50.285156 136.261719 50.558594 C 143.015625 59.695312 150.136719 69.476562 156.484375 79.808594 C 156.757812 80.253906 157.109375 80.847656 157.394531 81.449219 C 157.722656 82.152344 157.910156 82.769531 157.96875 83.332031 C 158.011719 83.769531 157.972656 84.167969 157.859375 84.554688 C 157.4375 85.953125 155.980469 86.863281 154.605469 87.570312 C 152.113281 88.851562 150.269531 89.089844 148.96875 88.300781 C 148.015625 87.722656 147.425781 86.605469 146.90625 85.625 C 145.65625 83.253906 144.40625 80.882812 143.160156 78.511719 L 130.265625 54.039062 C 130.171875 53.859375 130.050781 53.65625 129.878906 53.378906 C 129.691406 53.089844 129.3125 53.003906 129.019531 53.183594 C 128.730469 53.371094 128.644531 53.75 128.824219 54.042969 C 128.980469 54.289062 129.085938 54.46875 129.164062 54.617188 L 142.0625 79.09375 C 143.3125 81.460938 144.558594 83.832031 145.8125 86.203125 C 146.375 87.273438 147.078125 88.609375 148.324219 89.363281 C 149.015625 89.789062 149.800781 90 150.6875 90 Z M 150.6875 90 " fill-opacity="1" fill-rule="nonzero"/></g><path fill="#3dd8c5" d="M 150.328125 79.894531 C 150.417969 79.894531 150.511719 79.875 150.601562 79.832031 L 155.429688 77.476562 C 155.738281 77.324219 155.867188 76.953125 155.714844 76.644531 C 155.5625 76.332031 155.191406 76.207031 154.882812 76.359375 L 150.054688 78.714844 C 149.742188 78.867188 149.617188 79.234375 149.769531 79.546875 C 149.871094 79.765625 150.09375 79.894531 150.328125 79.894531 Z M 150.328125 79.894531 " fill-opacity="1" fill-rule="nonzero"/><path fill="#3dd8c5" d="M 148.945312 82.957031 C 149.019531 82.957031 149.097656 82.945312 149.175781 82.914062 C 149.789062 82.675781 150.367188 82.453125 150.921875 82.238281 C 153.011719 81.4375 154.820312 80.746094 156.910156 79.570312 C 157.210938 79.402344 157.316406 79.027344 157.148438 78.726562 C 156.976562 78.425781 156.601562 78.320312 156.300781 78.488281 C 154.289062 79.621094 152.523438 80.296875 150.476562 81.078125 C 149.921875 81.292969 149.335938 81.515625 148.71875 81.757812 C 148.402344 81.882812 148.246094 82.246094 148.371094 82.5625 C 148.464844 82.808594 148.699219 82.957031 148.945312 82.957031 Z M 148.945312 82.957031 " fill-opacity="1" fill-rule="nonzero"/><path fill="#3dd8c5" d="M 147.726562 85.984375 C 147.78125 85.984375 147.839844 85.976562 147.898438 85.957031 C 152.175781 84.730469 156.550781 82.597656 158.238281 81.734375 C 158.542969 81.582031 158.664062 81.203125 158.507812 80.902344 C 158.351562 80.59375 157.972656 80.476562 157.671875 80.632812 C 156.019531 81.476562 151.734375 83.566406 147.558594 84.765625 C 147.230469 84.859375 147.035156 85.203125 147.132812 85.53125 C 147.207031 85.804688 147.453125 85.984375 147.726562 85.984375 Z M 147.726562 85.984375 " fill-opacity="1" fill-rule="nonzero"/><g clip-path="url(#d2b181b8ca)"><path fill="#3dd8c5" d="M 149.433594 87.636719 C 149.503906 87.636719 149.574219 87.625 149.644531 87.601562 C 150.109375 87.433594 150.609375 87.261719 151.140625 87.078125 C 153.644531 86.210938 156.765625 85.132812 158.910156 83.800781 C 159.199219 83.621094 159.289062 83.234375 159.109375 82.945312 C 158.925781 82.652344 158.542969 82.5625 158.25 82.742188 C 156.226562 84.007812 153.179688 85.058594 150.734375 85.90625 C 150.203125 86.089844 149.695312 86.261719 149.226562 86.433594 C 148.902344 86.546875 148.734375 86.90625 148.851562 87.226562 C 148.9375 87.480469 149.179688 87.636719 149.433594 87.636719 Z M 149.433594 87.636719 " fill-opacity="1" fill-rule="nonzero"/></g><path fill="#3dd8c5" d="M 137.847656 28 C 138.183594 28 138.507812 27.902344 138.78125 27.664062 C 139.511719 27.035156 139.28125 25.980469 139.207031 25.632812 C 138.382812 21.824219 135.875 17.542969 132.65625 14.46875 C 130.46875 12.371094 127.855469 11.097656 125.308594 10.878906 C 124.109375 10.773438 123.207031 11.1875 122.90625 11.980469 C 122.515625 12.996094 123.195312 13.988281 124.773438 14.699219 C 129.6875 16.921875 133.683594 21.054688 135.742188 26.039062 L 135.769531 26.109375 C 135.960938 26.578125 136.183594 27.109375 136.628906 27.515625 C 136.945312 27.8125 137.398438 28 137.847656 28 Z M 124.96875 12.109375 C 125.046875 12.109375 125.128906 12.113281 125.207031 12.121094 C 127.46875 12.3125 129.8125 13.464844 131.796875 15.363281 C 134.84375 18.28125 137.21875 22.316406 137.992188 25.894531 C 138.128906 26.523438 138.007812 26.691406 137.96875 26.722656 C 137.882812 26.796875 137.628906 26.753906 137.460938 26.601562 C 137.222656 26.382812 137.074219 26.023438 136.914062 25.636719 L 136.886719 25.566406 C 134.710938 20.292969 130.484375 15.917969 125.285156 13.566406 C 124.605469 13.261719 123.933594 12.769531 124.066406 12.421875 C 124.148438 12.199219 124.558594 12.109375 124.96875 12.109375 Z M 124.96875 12.109375 " fill-opacity="1" fill-rule="nonzero"/><path fill="#3dd8c5" d="M 137.792969 35.84375 C 137.886719 35.84375 137.980469 35.835938 138.078125 35.816406 C 138.628906 35.71875 139.113281 35.332031 139.402344 34.753906 C 139.628906 34.3125 139.707031 33.84375 139.773438 33.433594 C 139.839844 33.035156 139.992188 30.230469 138.726562 29.578125 C 138.328125 29.371094 137.679688 29.300781 136.839844 30.128906 C 136.210938 30.753906 136.066406 31.636719 135.960938 32.28125 C 135.863281 32.898438 135.742188 33.667969 135.984375 34.414062 C 136.230469 35.160156 136.953125 35.84375 137.792969 35.84375 Z M 138.167969 30.6875 C 138.472656 30.914062 138.667969 32.476562 138.542969 33.230469 C 138.488281 33.570312 138.429688 33.921875 138.292969 34.195312 C 138.183594 34.410156 138.007812 34.570312 137.847656 34.597656 C 137.609375 34.640625 137.277344 34.371094 137.164062 34.027344 C 137.011719 33.570312 137.105469 32.988281 137.183594 32.480469 C 137.285156 31.863281 137.390625 31.324219 137.710938 31.015625 C 137.980469 30.753906 138.125 30.695312 138.167969 30.6875 Z M 138.167969 30.6875 " fill-opacity="1" fill-rule="nonzero"/><g clip-path="url(#47876e17bf)"><path fill="#3dd8c5" d="M 57.992188 45.703125 C 57.917969 45.703125 57.847656 45.664062 57.8125 45.59375 C 57.765625 45.496094 57.804688 45.375 57.90625 45.324219 C 60.695312 43.941406 63.761719 43.148438 66.722656 42.375 C 67.867188 42.078125 69.050781 41.773438 70.199219 41.4375 C 73.476562 40.476562 78.167969 38.777344 81.042969 35.121094 C 81.109375 35.035156 81.234375 35.019531 81.324219 35.089844 C 81.410156 35.15625 81.421875 35.28125 81.355469 35.371094 C 78.410156 39.117188 73.640625 40.847656 70.308594 41.820312 C 69.15625 42.160156 67.972656 42.46875 66.824219 42.765625 C 63.878906 43.527344 60.835938 44.320312 58.082031 45.683594 C 58.050781 45.695312 58.023438 45.703125 57.992188 45.703125 Z M 35.40625 48.085938 C 38.160156 45.917969 41.667969 44.238281 45.832031 43.09375 C 49.597656 42.058594 53.421875 41.554688 57.332031 41.089844 L 57.683594 41.050781 C 61.097656 40.644531 64.632812 40.222656 67.851562 38.886719 C 69.367188 38.257812 71.949219 36.828125 72.214844 34.304688 C 72.359375 32.914062 71.6875 31.410156 70.457031 30.382812 C 69.457031 29.546875 68.109375 28.996094 66.445312 28.738281 C 64.492188 28.4375 62.667969 28.621094 61.171875 29.269531 C 60.148438 29.710938 59.355469 30.351562 58.871094 31.113281 C 58.285156 32.035156 58.175781 33.160156 58.578125 34.046875 C 58.972656 34.910156 59.855469 35.5625 60.941406 35.785156 C 61.765625 35.957031 62.691406 35.90625 63.859375 35.617188 C 64.75 35.398438 66.007812 34.984375 66.660156 33.941406 C 66.71875 33.847656 66.691406 33.722656 66.597656 33.664062 C 66.507812 33.605469 66.382812 33.636719 66.324219 33.726562 C 65.882812 34.429688 65.070312 34.90625 63.765625 35.226562 C 62.65625 35.5 61.785156 35.554688 61.019531 35.394531 C 60.058594 35.195312 59.28125 34.628906 58.941406 33.878906 C 58.59375 33.113281 58.695312 32.136719 59.207031 31.324219 C 59.648438 30.628906 60.382812 30.046875 61.328125 29.636719 C 62.757812 29.015625 64.503906 28.839844 66.382812 29.132812 C 67.972656 29.378906 69.257812 29.902344 70.199219 30.6875 C 71.328125 31.628906 71.945312 33 71.816406 34.261719 C 71.574219 36.574219 69.132812 37.921875 67.699219 38.515625 C 64.527344 39.832031 61.023438 40.246094 57.632812 40.652344 L 57.285156 40.691406 C 53.355469 41.160156 49.515625 41.667969 45.722656 42.707031 C 41.507812 43.867188 37.953125 45.570312 35.15625 47.773438 C 35.070312 47.839844 35.054688 47.964844 35.125 48.054688 C 35.164062 48.105469 35.222656 48.128906 35.28125 48.128906 C 35.324219 48.128906 35.367188 48.117188 35.40625 48.085938 Z M 21.074219 49.496094 C 30.121094 42.804688 41.296875 39.050781 52.550781 38.925781 C 52.660156 38.925781 52.75 38.835938 52.746094 38.722656 C 52.746094 38.613281 52.65625 38.527344 52.546875 38.527344 C 41.210938 38.652344 29.949219 42.433594 20.835938 49.171875 C 20.746094 49.238281 20.726562 49.363281 20.792969 49.453125 C 20.832031 49.507812 20.894531 49.535156 20.953125 49.535156 C 20.996094 49.535156 21.035156 49.519531 21.074219 49.496094 Z M 38.742188 37.675781 C 42.847656 36.664062 47.070312 36.121094 51.296875 36.0625 C 51.40625 36.0625 51.496094 35.972656 51.492188 35.863281 C 51.492188 35.753906 51.402344 35.664062 51.292969 35.664062 C 47.035156 35.722656 42.78125 36.269531 38.648438 37.285156 C 38.539062 37.3125 38.472656 37.421875 38.5 37.527344 C 38.523438 37.617188 38.605469 37.679688 38.695312 37.679688 C 38.710938 37.679688 38.726562 37.679688 38.742188 37.675781 Z M 38.742188 37.675781 " fill-opacity="1" fill-rule="nonzero"/></g></svg>