<svg xmlns="http://www.w3.org/2000/svg" xmlns:xlink="http://www.w3.org/1999/xlink" width="504" zoomAndPan="magnify" viewBox="0 0 378 377.999986" height="504" preserveAspectRatio="xMidYMid meet" version="1.0"><defs><g/></defs><path fill="#3dd8c5" d="M 322.574219 269.085938 L 244.839844 112.738281 C 221.953125 133.210938 201.8125 169.125 202.9375 198.554688 L 226.457031 244.933594 C 227.300781 246.601562 228.742188 247.882812 230.492188 248.535156 L 313.335938 279.351562 C 319.644531 281.699219 325.570312 275.113281 322.574219 269.085938 Z M 183.078125 183.644531 C 182.878906 183.9375 182.695312 184.25 182.53125 184.585938 L 153.019531 244.394531 C 152.179688 246.09375 150.726562 247.410156 148.949219 248.070312 L 64.578125 279.457031 C 58.304688 281.792969 52.390625 275.285156 55.304688 269.261719 L 180.539062 10.3125 C 183.226562 4.753906 191.128906 4.710938 193.878906 10.238281 L 242.183594 107.398438 C 215.695312 126.332031 194.957031 152.789062 183.078125 183.644531 " fill-opacity="1" fill-rule="nonzero"/><g fill="#3dd8c5" fill-opacity="1"><g transform="translate(82.938864, 358.418033)"><g><path d="M 34.984375 0 L 31.546875 -11.28125 L 14.265625 -11.28125 L 10.828125 0 L 0 0 L 16.734375 -47.59375 L 29.015625 -47.59375 L 45.8125 0 Z M 29.15625 -19.71875 C 25.976562 -29.9375 24.1875 -35.71875 23.78125 -37.0625 C 23.382812 -38.40625 23.097656 -39.460938 22.921875 -40.234375 C 22.210938 -37.472656 20.171875 -30.632812 16.796875 -19.71875 Z M 29.15625 -19.71875 "/></g></g></g><g fill="#3dd8c5" fill-opacity="1"><g transform="translate(128.755715, 358.418033)"><g><path d="M 38.65625 0 L 28.765625 0 L 28.765625 -21.171875 C 28.765625 -23.785156 28.296875 -25.742188 27.359375 -27.046875 C 26.429688 -28.359375 24.953125 -29.015625 22.921875 -29.015625 C 20.160156 -29.015625 18.160156 -28.085938 16.921875 -26.234375 C 15.691406 -24.390625 15.078125 -21.332031 15.078125 -17.0625 L 15.078125 0 L 5.1875 0 L 5.1875 -36.25 L 12.75 -36.25 L 14.078125 -31.609375 L 14.625 -31.609375 C 15.726562 -33.359375 17.242188 -34.679688 19.171875 -35.578125 C 21.109375 -36.484375 23.3125 -36.9375 25.78125 -36.9375 C 29.988281 -36.9375 33.1875 -35.796875 35.375 -33.515625 C 37.5625 -31.234375 38.65625 -27.941406 38.65625 -23.640625 Z M 38.65625 0 "/></g></g></g><g fill="#3dd8c5" fill-opacity="1"><g transform="translate(172.400076, 358.418033)"><g><path d="M 4.765625 -45.625 C 4.765625 -48.84375 6.5625 -50.453125 10.15625 -50.453125 C 13.738281 -50.453125 15.53125 -48.84375 15.53125 -45.625 C 15.53125 -44.082031 15.082031 -42.882812 14.1875 -42.03125 C 13.289062 -41.1875 11.945312 -40.765625 10.15625 -40.765625 C 6.5625 -40.765625 4.765625 -42.382812 4.765625 -45.625 Z M 15.078125 0 L 5.1875 0 L 5.1875 -36.25 L 15.078125 -36.25 Z M 15.078125 0 "/></g></g></g><g fill="#3dd8c5" fill-opacity="1"><g transform="translate(192.665845, 358.418033)"><g><path d="M 15.078125 0 L 5.1875 0 L 5.1875 -50.453125 L 15.078125 -50.453125 Z M 15.078125 0 "/></g></g></g><g fill="#3dd8c5" fill-opacity="1"><g transform="translate(212.931614, 358.418033)"><g><path d="M 4.765625 -45.625 C 4.765625 -48.84375 6.5625 -50.453125 10.15625 -50.453125 C 13.738281 -50.453125 15.53125 -48.84375 15.53125 -45.625 C 15.53125 -44.082031 15.082031 -42.882812 14.1875 -42.03125 C 13.289062 -41.1875 11.945312 -40.765625 10.15625 -40.765625 C 6.5625 -40.765625 4.765625 -42.382812 4.765625 -45.625 Z M 15.078125 0 L 5.1875 0 L 5.1875 -36.25 L 15.078125 -36.25 Z M 15.078125 0 "/></g></g></g><g fill="#3dd8c5" fill-opacity="1"><g transform="translate(233.197383, 358.418033)"><g><path d="M 30.484375 -10.765625 C 30.484375 -7.046875 29.191406 -4.210938 26.609375 -2.265625 C 24.023438 -0.316406 20.160156 0.65625 15.015625 0.65625 C 12.378906 0.65625 10.128906 0.472656 8.265625 0.109375 C 6.410156 -0.242188 4.671875 -0.765625 3.046875 -1.453125 L 3.046875 -9.625 C 4.878906 -8.757812 6.945312 -8.035156 9.25 -7.453125 C 11.550781 -6.867188 13.582031 -6.578125 15.34375 -6.578125 C 18.925781 -6.578125 20.71875 -7.613281 20.71875 -9.6875 C 20.71875 -10.46875 20.476562 -11.101562 20 -11.59375 C 19.53125 -12.082031 18.710938 -12.632812 17.546875 -13.25 C 16.378906 -13.863281 14.820312 -14.582031 12.875 -15.40625 C 10.082031 -16.570312 8.03125 -17.648438 6.71875 -18.640625 C 5.414062 -19.640625 4.46875 -20.78125 3.875 -22.0625 C 3.28125 -23.351562 2.984375 -24.9375 2.984375 -26.8125 C 2.984375 -30.03125 4.226562 -32.519531 6.71875 -34.28125 C 9.21875 -36.050781 12.757812 -36.9375 17.34375 -36.9375 C 21.707031 -36.9375 25.957031 -35.984375 30.09375 -34.078125 L 27.109375 -26.9375 C 25.296875 -27.71875 23.597656 -28.359375 22.015625 -28.859375 C 20.441406 -29.359375 18.832031 -29.609375 17.1875 -29.609375 C 14.269531 -29.609375 12.8125 -28.816406 12.8125 -27.234375 C 12.8125 -26.347656 13.28125 -25.582031 14.21875 -24.9375 C 15.15625 -24.289062 17.210938 -23.328125 20.390625 -22.046875 C 23.222656 -20.898438 25.296875 -19.828125 26.609375 -18.828125 C 27.929688 -17.835938 28.90625 -16.691406 29.53125 -15.390625 C 30.164062 -14.097656 30.484375 -12.554688 30.484375 -10.765625 Z M 30.484375 -10.765625 "/></g></g></g><g fill="#3dd8c5" fill-opacity="1"><g transform="translate(266.206268, 358.418033)"><g><path d="M 20.453125 -7.234375 C 22.179688 -7.234375 24.257812 -7.609375 26.6875 -8.359375 L 26.6875 -1 C 24.21875 0.101562 21.191406 0.65625 17.609375 0.65625 C 13.648438 0.65625 10.769531 -0.34375 8.96875 -2.34375 C 7.164062 -4.34375 6.265625 -7.34375 6.265625 -11.34375 L 6.265625 -28.828125 L 1.53125 -28.828125 L 1.53125 -33.015625 L 6.96875 -36.3125 L 9.828125 -43.96875 L 16.140625 -43.96875 L 16.140625 -36.25 L 26.296875 -36.25 L 26.296875 -28.828125 L 16.140625 -28.828125 L 16.140625 -11.34375 C 16.140625 -9.9375 16.535156 -8.898438 17.328125 -8.234375 C 18.117188 -7.566406 19.160156 -7.234375 20.453125 -7.234375 Z M 20.453125 -7.234375 "/></g></g></g></svg>